<svg width="38" height="38" viewBox="0 0 38 38" fill="none" xmlns="http://www.w3.org/2000/svg">
<path d="M35.275 11.4615C35.275 8.87438 34.4156 6.684 32.6968 4.8904C30.9779 3.09683 28.8788 2.20005 26.3994 2.20005V4.57764e-05C29.4464 4.57764e-05 32.0388 1.11543 34.1766 3.3462C36.3145 5.57696 37.3834 8.28208 37.3834 11.4615H35.275ZM30.1959 11.4615C30.1959 10.3744 29.8236 9.44233 29.0791 8.6654C28.3345 7.8885 27.4413 7.50005 26.3994 7.50005V5.30005C28.0335 5.30005 29.4163 5.89556 30.5479 7.0866C31.6794 8.27763 32.2649 9.73595 32.3042 11.4615H30.1959ZM4.43156 38C3.46338 38 2.64388 37.65 1.97305 36.95C1.30221 36.25 0.966797 35.3948 0.966797 34.3845V11.6154C0.966797 10.6052 1.30221 9.75005 1.97305 9.05005C2.64388 8.35005 3.46338 8.00005 4.43156 8.00005H10.2847L13.8306 4.00005H24.4828V7H15.0837L11.5674 11H4.43156C4.25953 11 4.11823 11.0577 4.00764 11.1731C3.89705 11.2885 3.84175 11.4359 3.84175 11.6154V34.3845C3.84175 34.564 3.89705 34.7115 4.00764 34.8269C4.11823 34.9423 4.25953 35 4.43156 35H33.9186C34.0906 35 34.2319 34.9423 34.3425 34.8269C34.4531 34.7115 34.5084 34.564 34.5084 34.3845V13.4615H37.3834V34.3845C37.3834 35.3948 37.048 36.25 36.3771 36.95C35.7063 37.65 34.8868 38 33.9186 38H4.43156ZM19.1751 31.2307C21.3743 31.2307 23.2388 30.4326 24.7684 28.8365C26.298 27.2404 27.0628 25.2949 27.0628 23C27.0628 20.7051 26.298 18.7596 24.7684 17.1635C23.2388 15.5674 21.3743 14.7693 19.1751 14.7693C16.9758 14.7693 15.1114 15.5674 13.5818 17.1635C12.0521 18.7596 11.2873 20.7051 11.2873 23C11.2873 25.2949 12.0521 27.2404 13.5818 28.8365C15.1114 30.4326 16.9758 31.2307 19.1751 31.2307ZM19.1751 28.2308C17.7597 28.2308 16.5704 27.7282 15.6071 26.7231C14.6439 25.718 14.1622 24.4769 14.1622 23C14.1622 21.5231 14.6439 20.282 15.6071 19.2769C16.5704 18.2718 17.7597 17.7692 19.1751 17.7692C20.5905 17.7692 21.7798 18.2718 22.7431 19.2769C23.7063 20.282 24.1879 21.5231 24.1879 23C24.1879 24.4769 23.7063 25.718 22.7431 26.7231C21.7798 27.7282 20.5905 28.2308 19.1751 28.2308Z" fill="#1C1B1F"/>
</svg>
