<svg width="17" height="18" viewBox="0 0 17 18" fill="none" xmlns="http://www.w3.org/2000/svg">
<path d="M3.60942 13.1742L13.5248 13.1667M8.49969 1.5C10.1061 1.5 11.4478 2.625 11.7744 4.12583C12.1991 4.01147 12.6423 3.98147 13.0786 4.03753C13.515 4.09359 13.936 4.23462 14.3176 4.45257C14.6991 4.67051 15.0338 4.96111 15.3026 5.30776C15.5713 5.65441 15.7687 6.05033 15.8837 6.47292C15.9986 6.8955 16.0288 7.33647 15.9724 7.77065C15.9161 8.20483 15.7743 8.62371 15.5553 9.00339C15.3363 9.38306 15.0442 9.71609 14.6958 9.98346C14.3474 10.2508 13.9495 10.4473 13.5248 10.5617V16.5H3.47458V10.5617C3.04988 10.4472 2.65199 10.2506 2.30364 9.98314C1.95529 9.71567 1.6633 9.38255 1.44433 9.0028C1.22537 8.62305 1.08372 8.2041 1.02748 7.76988C0.971242 7.33566 1.00151 6.89467 1.11655 6.47208C1.23159 6.0495 1.42916 5.6536 1.69798 5.30699C1.96679 4.96038 2.30159 4.66985 2.68325 4.45198C3.06491 4.23411 3.48596 4.09317 3.92236 4.03721C4.35876 3.98125 4.80197 4.01136 5.22667 4.12583C5.38901 3.38214 5.80222 2.71611 6.39764 2.23842C6.99306 1.76074 7.73483 1.50016 8.49969 1.5Z" stroke="black" stroke-width="1.5" stroke-linecap="round" stroke-linejoin="round"/>
</svg>
