<svg width="16" height="19" viewBox="0 0 16 19" fill="none" xmlns="http://www.w3.org/2000/svg">
<path d="M0.5 15.8667V14.46H2.3077V7.46192C2.3077 6.2006 2.72276 5.08537 3.55287 4.11623C4.38301 3.14708 5.44872 2.52725 6.75 2.25672V1.67235C6.75 1.3467 6.87142 1.0699 7.11425 0.841952C7.35708 0.613985 7.65195 0.5 7.99885 0.5C8.34575 0.5 8.64099 0.613985 8.88457 0.841952C9.12816 1.0699 9.24995 1.3467 9.24995 1.67235V2.25672C10.5512 2.52725 11.6169 3.14708 12.4471 4.11623C13.2772 5.08537 13.6922 6.2006 13.6922 7.46192V14.46H15.5V15.8667H0.5ZM7.99828 18.5C7.50069 18.5 7.0753 18.334 6.7221 18.002C6.3689 17.67 6.1923 17.2709 6.1923 16.8046H9.80765C9.80765 17.2724 9.63048 17.6719 9.27615 18.0031C8.92182 18.3344 8.49586 18.5 7.99828 18.5ZM3.80765 14.46H12.1923V7.46192C12.1923 6.37614 11.783 5.44938 10.9644 4.68165C10.1458 3.9139 9.15767 3.53003 7.99997 3.53003C6.84227 3.53003 5.85413 3.9139 5.03555 4.68165C4.21695 5.44938 3.80765 6.37614 3.80765 7.46192V14.46Z" fill="#2B242A"/>
</svg>
