<svg width="29" height="20" viewBox="0 0 29 20" fill="none" xmlns="http://www.w3.org/2000/svg">
<path d="M22.17 12.0787V8.07805H18.1694V6.07781H22.17V2.07721H24.1702V6.07781H28.1708V8.07805H24.1702V12.0787H22.17ZM10.0015 9.33464C8.71797 9.33464 7.6192 8.87764 6.70518 7.96363C5.79115 7.04961 5.33414 5.95084 5.33414 4.66734C5.33414 3.38381 5.79115 2.28504 6.70518 1.37104C7.6192 0.457013 8.71797 0 10.0015 0C11.285 0 12.3837 0.457013 13.2978 1.37104C14.2118 2.28504 14.6688 3.38381 14.6688 4.66734C14.6688 5.95084 14.2118 7.04961 13.2978 7.96363C12.3837 8.87764 11.285 9.33464 10.0015 9.33464ZM3.332e-05 19.49V16.5255C3.332e-05 15.8724 0.177393 15.2676 0.532113 14.7111C0.886878 14.1547 1.36088 13.7268 1.95413 13.4276C3.27228 12.7814 4.60197 12.2967 5.94319 11.9736C7.28442 11.6505 8.63718 11.4889 10.0015 11.4889C11.3658 11.4889 12.7185 11.6505 14.0597 11.9736C15.401 12.2967 16.7307 12.7814 18.0488 13.4276C18.6421 13.7268 19.1161 14.1547 19.4708 14.7111C19.8256 15.2676 20.0029 15.8724 20.0029 16.5255V19.49H3.332e-05ZM2.00027 17.4897H18.0027V16.5255C18.0027 16.2554 17.9245 16.0053 17.768 15.7754C17.6116 15.5454 17.3992 15.3578 17.1307 15.2125C15.9819 14.6466 14.8104 14.2179 13.6163 13.9264C12.4222 13.6349 11.2173 13.4891 10.0015 13.4891C8.78569 13.4891 7.58075 13.6349 6.38666 13.9264C5.19257 14.2179 4.02108 14.6466 2.8722 15.2125C2.60378 15.3578 2.39136 15.5454 2.23494 15.7754C2.07849 16.0053 2.00027 16.2554 2.00027 16.5255V17.4897ZM10.0015 7.3344C10.7349 7.3344 11.3628 7.07325 11.8851 6.55095C12.4074 6.02865 12.6685 5.40078 12.6685 4.66734C12.6685 3.93389 12.4074 3.30602 11.8851 2.78372C11.3628 2.26142 10.7349 2.00027 10.0015 2.00027C9.26803 2.00027 8.64015 2.26142 8.11785 2.78372C7.59555 3.30602 7.3344 3.93389 7.3344 4.66734C7.3344 5.40078 7.59555 6.02865 8.11785 6.55095C8.64015 7.07325 9.26803 7.3344 10.0015 7.3344Z" fill="#2B242A"/>
</svg>
