<svg width="20" height="22" viewBox="0 0 20 22" fill="none" xmlns="http://www.w3.org/2000/svg">
<path d="M2.29937 12.2535C2.42537 12.0623 2.5181 11.8475 2.57757 11.6089C2.63702 11.3704 2.66674 11.0897 2.66674 10.7669C2.66674 10.1794 2.48269 9.49591 2.11459 8.71653C1.74649 7.93715 1.56244 7.28625 1.56244 6.76382C1.56244 6.57129 1.58368 6.36601 1.62616 6.14798C1.66864 5.92993 1.76986 5.68571 1.92984 5.4153H3.24647C3.0865 5.68571 2.98527 5.92816 2.94279 6.14265C2.90033 6.35714 2.8791 6.5642 2.8791 6.76382C2.8791 7.24377 3.06315 7.87874 3.43125 8.66874C3.79935 9.45874 3.9834 10.1581 3.9834 10.7669C3.9834 11.0968 3.9519 11.3771 3.8889 11.6079C3.8259 11.8386 3.73493 12.0539 3.616 12.2535H2.29937ZM9.47733 12.2535C9.60333 12.0623 9.69606 11.8475 9.75553 11.6089C9.81498 11.3704 9.8447 11.0897 9.8447 10.7669C9.8447 10.1794 9.66065 9.49591 9.29255 8.71653C8.92445 7.93715 8.7404 7.28625 8.7404 6.76382C8.7404 6.57129 8.76164 6.36601 8.80412 6.14798C8.8466 5.92993 8.94783 5.68571 9.1078 5.4153H10.4244C10.2645 5.68571 10.1632 5.92816 10.1208 6.14265C10.0783 6.35714 10.0571 6.5642 10.0571 6.76382C10.0571 7.24377 10.2411 7.87874 10.6092 8.66874C10.9773 9.45874 11.1614 10.1581 11.1614 10.7669C11.1614 11.0968 11.1299 11.3771 11.0669 11.6079C11.0039 11.8386 10.9129 12.0539 10.794 12.2535H9.47733ZM5.88835 12.2535C6.01435 12.0623 6.10708 11.8475 6.16655 11.6089C6.226 11.3704 6.25572 11.0897 6.25572 10.7669C6.25572 10.1794 6.07167 9.49591 5.70357 8.71653C5.33547 7.93715 5.15142 7.28625 5.15142 6.76382C5.15142 6.57129 5.17266 6.36601 5.21514 6.14798C5.25762 5.92993 5.35885 5.68571 5.51882 5.4153H6.83545C6.67548 5.68571 6.57425 5.92816 6.53177 6.14265C6.48931 6.35714 6.46808 6.5642 6.46808 6.76382C6.46808 7.24377 6.65213 7.87874 7.02023 8.66874C7.38833 9.45874 7.57238 10.1581 7.57238 10.7669C7.57238 11.0968 7.54088 11.3771 7.47788 11.6079C7.41488 11.8386 7.32391 12.0539 7.20498 12.2535H5.88835ZM7.19013 21.5338C5.40201 21.5338 3.82768 20.9339 2.46714 19.734C1.10658 18.5342 0.288269 17.0529 0.0121939 15.2903C-0.0288677 15.0369 0.0337736 14.8178 0.200118 14.633C0.366463 14.4483 0.579888 14.3559 0.840392 14.3559H12.7074L13.954 2.68216C14.0389 1.92472 14.3649 1.28833 14.9319 0.773011C15.4989 0.25767 16.176 0 16.9632 0C17.8056 0 18.5223 0.29554 19.1134 0.886618C19.7045 1.4777 20 2.19442 20 3.0368C20 3.23076 19.9841 3.48983 19.9522 3.81404C19.9204 4.13824 19.9009 4.32866 19.8938 4.38529L18.2544 4.17294C18.2615 4.12339 18.2781 3.95598 18.3043 3.6707C18.3305 3.38542 18.3436 3.17412 18.3436 3.0368C18.3436 2.65313 18.2095 2.32714 17.9412 2.05883C17.6729 1.79054 17.3469 1.6564 16.9632 1.6564C16.5979 1.6564 16.2857 1.77603 16.0266 2.0153C15.7676 2.25458 15.6196 2.54765 15.5828 2.89451L14.3128 14.9038C14.1175 16.7839 13.3469 18.359 12.0013 19.6289C10.6556 20.8989 9.05187 21.5338 7.19013 21.5338ZM7.19013 19.8774C8.40346 19.8774 9.47273 19.5224 10.3979 18.8124C11.3232 18.1024 11.9896 17.169 12.3974 16.0123H1.88945C2.33401 17.169 3.02526 18.1024 3.96322 18.8124C4.90116 19.5224 5.97679 19.8774 7.19013 19.8774Z" fill="#2B242A"/>
</svg>
