<svg width="25" height="24" viewBox="0 0 25 24" fill="none" xmlns="http://www.w3.org/2000/svg">
<path d="M6.88916 8V7C6.88916 5.4087 7.5213 3.88258 8.64652 2.75736C9.77174 1.63214 11.2979 1 12.8892 1C14.4805 1 16.0066 1.63214 17.1318 2.75736C18.257 3.88258 18.8892 5.4087 18.8892 7V8H20.8892C21.1544 8 21.4087 8.10536 21.5963 8.29289C21.7838 8.48043 21.8892 8.73478 21.8892 9V21C21.8892 21.2652 21.7838 21.5196 21.5963 21.7071C21.4087 21.8946 21.1544 22 20.8892 22H4.88916C4.62394 22 4.36959 21.8946 4.18205 21.7071C3.99452 21.5196 3.88916 21.2652 3.88916 21V9C3.88916 8.73478 3.99452 8.48043 4.18205 8.29289C4.36959 8.10536 4.62394 8 4.88916 8H6.88916ZM19.8892 10H5.88916V20H19.8892V10ZM11.8892 15.732C11.5079 15.5119 11.2099 15.1721 11.0414 14.7653C10.8729 14.3586 10.8434 13.9076 10.9573 13.4823C11.0713 13.057 11.3223 12.6813 11.6716 12.4132C12.0209 12.1452 12.4489 11.9999 12.8892 11.9999C13.3294 11.9999 13.7574 12.1452 14.1067 12.4132C14.456 12.6813 14.7071 13.057 14.821 13.4823C14.935 13.9076 14.9054 14.3586 14.7369 14.7653C14.5684 15.1721 14.2704 15.5119 13.8892 15.732V18H11.8892V15.732ZM8.88916 8H16.8892V7C16.8892 5.93913 16.4677 4.92172 15.7176 4.17157C14.9674 3.42143 13.95 3 12.8892 3C11.8283 3 10.8109 3.42143 10.0607 4.17157C9.31059 4.92172 8.88916 5.93913 8.88916 7V8Z" fill="black"/>
</svg>
