<svg width="25" height="24" viewBox="0 0 25 24" fill="none" xmlns="http://www.w3.org/2000/svg">
<g clip-path="url(#clip0_1282_2761)">
<path d="M19.8892 7H24.8892V9H19.8892V7ZM17.8892 12H24.8892V14H17.8892V12ZM20.8892 17H24.8892V19H20.8892V17ZM2.88916 22C2.88916 19.8783 3.73202 17.8434 5.23231 16.3431C6.7326 14.8429 8.76743 14 10.8892 14C13.0109 14 15.0457 14.8429 16.546 16.3431C18.0463 17.8434 18.8892 19.8783 18.8892 22H16.8892C16.8892 20.4087 16.257 18.8826 15.1318 17.7574C14.0066 16.6321 12.4805 16 10.8892 16C9.29786 16 7.77174 16.6321 6.64652 17.7574C5.5213 18.8826 4.88916 20.4087 4.88916 22H2.88916ZM10.8892 13C7.57416 13 4.88916 10.315 4.88916 7C4.88916 3.685 7.57416 1 10.8892 1C14.2042 1 16.8892 3.685 16.8892 7C16.8892 10.315 14.2042 13 10.8892 13ZM10.8892 11C13.0992 11 14.8892 9.21 14.8892 7C14.8892 4.79 13.0992 3 10.8892 3C8.67916 3 6.88916 4.79 6.88916 7C6.88916 9.21 8.67916 11 10.8892 11Z" fill="black"/>
</g>
<defs>
<clipPath id="clip0_1282_2761">
<rect width="24" height="24" fill="white" transform="translate(0.88916)"/>
</clipPath>
</defs>
</svg>
