<svg width="25" height="24" viewBox="0 0 25 24" fill="none" xmlns="http://www.w3.org/2000/svg">
<path d="M20.8892 17H22.8892V19H2.88916V17H4.88916V10C4.88916 7.87827 5.73202 5.84344 7.23231 4.34315C8.7326 2.84285 10.7674 2 12.8892 2C15.0109 2 17.0457 2.84285 18.546 4.34315C20.0463 5.84344 20.8892 7.87827 20.8892 10V17ZM18.8892 17V10C18.8892 8.4087 18.257 6.88258 17.1318 5.75736C16.0066 4.63214 14.4805 4 12.8892 4C11.2979 4 9.77174 4.63214 8.64652 5.75736C7.5213 6.88258 6.88916 8.4087 6.88916 10V17H18.8892ZM9.88916 21H15.8892V23H9.88916V21Z" fill="black"/>
</svg>
