<svg width="25" height="24" viewBox="0 0 25 24" fill="none" xmlns="http://www.w3.org/2000/svg">
<g clip-path="url(#clip0_1282_1674)">
<path d="M2.88916 3.993C2.89099 3.73038 2.99606 3.47902 3.18167 3.29322C3.36729 3.10742 3.61854 3.00209 3.88116 3H21.8972C22.4452 3 22.8892 3.445 22.8892 3.993V20.007C22.8873 20.2696 22.7823 20.521 22.5966 20.7068C22.411 20.8926 22.1598 20.9979 21.8972 21H3.88116C3.61797 20.9997 3.36566 20.895 3.17965 20.7088C2.99364 20.5226 2.88916 20.2702 2.88916 20.007V3.993ZM4.88916 5V19H20.8892V5H4.88916ZM6.88916 7H12.8892V13H6.88916V7ZM8.88916 9V11H10.8892V9H8.88916ZM6.88916 15H18.8892V17H6.88916V15ZM14.8892 7H18.8892V9H14.8892V7ZM14.8892 11H18.8892V13H14.8892V11Z" fill="black"/>
</g>
<defs>
<clipPath id="clip0_1282_1674">
<rect width="24" height="24" fill="white" transform="translate(0.88916)"/>
</clipPath>
</defs>
</svg>
