<svg width="47" height="38" viewBox="0 0 47 38" fill="none" xmlns="http://www.w3.org/2000/svg">
<mask id="mask0_531_7190" style="mask-type:luminance" maskUnits="userSpaceOnUse" x="0" y="0" width="47" height="38">
<path fill-rule="evenodd" clip-rule="evenodd" d="M2.66669 19L7.87502 13.7917L18.2917 24.2083L39.125 3.375L44.3334 8.58333L18.2917 34.625L2.66669 19Z" fill="white"/>
<path fill-rule="evenodd" clip-rule="evenodd" d="M37.3119 1.56192C38.3133 0.560577 39.9368 0.560577 40.9381 1.56192L46.1464 6.77025C47.1478 7.7716 47.1478 9.3951 46.1464 10.3964L20.1048 36.4381C19.1034 37.4395 17.4799 37.4395 16.4786 36.4381L0.853578 20.8131C-0.147767 19.8118 -0.147767 18.1883 0.853578 17.1869L6.06191 11.9786C7.06326 10.9772 8.68676 10.9772 9.6881 11.9786L18.2917 20.5822L37.3119 1.56192ZM39.125 7.0012L20.1048 26.0214C19.1034 27.0228 17.4799 27.0228 16.4786 26.0214L7.87501 17.4179L6.29286 19L18.2917 30.9988L40.7072 8.58335L39.125 7.0012Z" fill="white"/>
</mask>
<g mask="url(#mask0_531_7190)">
<path d="M-1.5 -6H48.5V44H-1.5V-6Z" fill="#6A994E"/>
</g>
</svg>
